<svg width="32" height="32" viewBox="0 0 32 32" fill="none" xmlns="http://www.w3.org/2000/svg">
<path fill-rule="evenodd" clip-rule="evenodd" d="M23.9661 8.20174C22.5772 8.14459 21.2046 8.53086 19.9685 9.25711C19.0338 9.80629 19.0249 9.79183 19.0224 8.6688C19.0216 8.30739 19.0223 7.94601 19.0223 7.58458C19.0223 6.19922 19.0256 4.81381 19.0211 3.42848C19.0177 2.36657 18.8645 2.21281 17.8285 2.20171C17.5246 2.19844 17.2206 2.19836 16.9167 2.20165C15.9267 2.21238 15.8672 2.26232 15.8647 3.21408C15.8591 5.29211 15.863 7.37017 15.863 9.44821H15.8606C15.8606 11.5263 15.8604 13.6043 15.8607 15.6824C15.8608 16.0416 15.8007 16.4283 16.1346 16.686C16.8061 17.2041 17.5061 17.6874 18.26 18.0777C18.6707 18.2902 18.9554 18.1042 19.0045 17.6135C19.0464 17.1958 19.0402 16.7701 19.0177 16.3498C18.9636 15.3432 19.2968 14.4491 19.8285 13.6243C21.6958 10.7279 25.6973 10.5951 27.7476 13.3333C28.8351 14.7852 29.0171 16.4242 28.7497 18.141C28.5501 19.4238 27.8527 20.4219 26.7947 21.1784C24.9951 22.465 22.9982 22.5363 20.9682 21.9776C19.0431 21.4479 17.3862 20.3503 15.7736 19.2155C14.5854 18.3792 13.446 17.4751 12.2714 16.6193C10.2741 15.164 8.04438 14.6794 5.63423 15.2301C3.03561 15.8237 1.18765 17.3643 0.139309 19.8068C-0.170088 20.5277 0.026627 20.8099 0.822343 20.8317C1.49056 20.85 2.16017 20.82 2.82819 20.8411C3.27929 20.8554 3.58654 20.6921 3.76607 20.2801C3.82591 20.1427 3.9109 20.0155 3.99025 19.8872C4.8871 18.4368 6.48539 17.805 8.1463 18.2427C8.88579 18.4375 9.57183 18.7473 10.2172 19.1553C11.6786 20.0792 13.0763 21.0916 14.4628 22.1206C17.2727 24.2058 20.2635 25.7026 23.9468 25.3942C26.444 25.185 28.5205 24.27 30.1277 22.375C31.4062 20.8672 31.9728 19.1072 31.9988 17.1294C32.0222 15.3687 31.7036 13.7187 30.7889 12.206C29.2469 9.6563 26.9183 8.32327 23.9661 8.20174Z" fill="#10121E"/>
</svg>
